<mxfile host="65bd71144e">
    <diagram id="6aElkc7K2RXi2JIA-wrS" name="Page-1">
        <mxGraphModel dx="2093" dy="1378" grid="1" gridSize="10" guides="1" tooltips="1" connect="1" arrows="1" fold="1" page="1" pageScale="1" pageWidth="1169" pageHeight="827" math="0" shadow="0">
            <root>
                <mxCell id="0"/>
                <mxCell id="1" parent="0"/>
                <mxCell id="3" value="To do list :&lt;div&gt;&lt;ul&gt;&lt;li&gt;task&lt;/li&gt;&lt;ul&gt;&lt;li&gt;id&lt;/li&gt;&lt;li&gt;desctiption&lt;/li&gt;&lt;li&gt;isCheck()&lt;/li&gt;&lt;li&gt;remove()&lt;/li&gt;&lt;/ul&gt;&lt;li&gt;addTask()&lt;/li&gt;&lt;li&gt;length&lt;/li&gt;&lt;/ul&gt;&lt;/div&gt;" style="html=1;shadow=0;dashed=0;shape=mxgraph.bootstrap.rrect;rSize=5;strokeColor=#999999;strokeWidth=1;fillColor=#FFFFFF;fontColor=#6C767D;whiteSpace=wrap;align=left;verticalAlign=middle;spacingLeft=10;fontSize=14;spacing=10;movable=0;resizable=0;rotatable=0;deletable=0;editable=0;locked=1;connectable=0;" vertex="1" parent="1">
                    <mxGeometry x="10" y="-70" width="420" height="220" as="geometry"/>
                </mxCell>
                <mxCell id="5" value="" style="verticalLabelPosition=bottom;verticalAlign=top;html=1;shadow=0;dashed=0;strokeWidth=1;shape=mxgraph.android.phone2;strokeColor=#c0c0c0;movable=0;resizable=0;rotatable=0;deletable=0;editable=0;locked=1;connectable=0;" vertex="1" parent="1">
                    <mxGeometry y="219" width="420" height="771" as="geometry"/>
                </mxCell>
                <mxCell id="9" value="" style="group;movable=0;resizable=0;rotatable=0;deletable=0;editable=0;locked=1;connectable=0;" vertex="1" connectable="0" parent="1">
                    <mxGeometry x="510" y="201" width="202" height="36" as="geometry"/>
                </mxCell>
                <mxCell id="6" value="" style="rounded=1;whiteSpace=wrap;html=1;movable=0;resizable=0;rotatable=0;deletable=0;editable=0;locked=1;connectable=0;" vertex="1" parent="9">
                    <mxGeometry width="30" height="30" as="geometry"/>
                </mxCell>
                <mxCell id="7" value="Description" style="text;html=1;align=center;verticalAlign=middle;whiteSpace=wrap;rounded=0;movable=0;resizable=0;rotatable=0;deletable=0;editable=0;locked=1;connectable=0;" vertex="1" parent="9">
                    <mxGeometry x="40" width="90" height="30" as="geometry"/>
                </mxCell>
                <mxCell id="8" value="date" style="text;html=1;align=center;verticalAlign=middle;whiteSpace=wrap;rounded=0;movable=0;resizable=0;rotatable=0;deletable=0;editable=0;locked=1;connectable=0;" vertex="1" parent="9">
                    <mxGeometry x="150" width="50" height="30" as="geometry"/>
                </mxCell>
                <mxCell id="10" value="" style="group;movable=0;resizable=0;rotatable=0;deletable=0;editable=0;locked=1;connectable=0;" vertex="1" connectable="0" parent="1">
                    <mxGeometry x="510" y="241" width="200" height="30" as="geometry"/>
                </mxCell>
                <mxCell id="11" value="" style="rounded=1;whiteSpace=wrap;html=1;movable=0;resizable=0;rotatable=0;deletable=0;editable=0;locked=1;connectable=0;" vertex="1" parent="10">
                    <mxGeometry width="30" height="30" as="geometry"/>
                </mxCell>
                <mxCell id="12" value="Description" style="text;html=1;align=center;verticalAlign=middle;whiteSpace=wrap;rounded=0;movable=0;resizable=0;rotatable=0;deletable=0;editable=0;locked=1;connectable=0;" vertex="1" parent="10">
                    <mxGeometry x="40" width="90" height="30" as="geometry"/>
                </mxCell>
                <mxCell id="13" value="date" style="text;html=1;align=center;verticalAlign=middle;whiteSpace=wrap;rounded=0;movable=0;resizable=0;rotatable=0;deletable=0;editable=0;locked=1;connectable=0;" vertex="1" parent="10">
                    <mxGeometry x="150" width="50" height="30" as="geometry"/>
                </mxCell>
                <mxCell id="24" value="" style="dashed=0;align=center;fontSize=12;shape=rect;fillColor=#ffffff;strokeColor=none;movable=0;resizable=0;rotatable=0;deletable=0;editable=0;locked=1;connectable=0;" vertex="1" parent="1">
                    <mxGeometry x="-680" y="50" width="358" height="642" as="geometry"/>
                </mxCell>
                <mxCell id="25" value="12:30" style="dashed=0;align=center;fontSize=12;shape=rect;align=right;fillColor=#0973AE;strokeColor=none;fontColor=#FFFFFF;spacingRight=4;spacingTop=1;fontStyle=0;fontSize=13;resizeWidth=1;movable=0;resizable=0;rotatable=0;deletable=0;editable=0;locked=1;connectable=0;" vertex="1" parent="24">
                    <mxGeometry width="358" height="24" relative="1" as="geometry"/>
                </mxCell>
                <mxCell id="26" value="" style="dashed=0;html=1;shape=mxgraph.gmdl.top_bar;fillColor=#0973AE;strokeColor=none;movable=0;resizable=0;rotatable=0;deletable=0;editable=0;locked=1;connectable=0;" vertex="1" parent="25">
                    <mxGeometry x="1" y="0.5" width="46" height="14" relative="1" as="geometry">
                        <mxPoint x="-92" y="-7" as="offset"/>
                    </mxGeometry>
                </mxCell>
                <mxCell id="27" value="" style="dashed=0;align=center;fontSize=12;shape=rect;strokeColor=none;fillColor=#098DCA;resizeWidth=1;movable=0;resizable=0;rotatable=0;deletable=0;editable=0;locked=1;connectable=0;" vertex="1" parent="24">
                    <mxGeometry width="358" height="60" relative="1" as="geometry">
                        <mxPoint y="24" as="offset"/>
                    </mxGeometry>
                </mxCell>
                <mxCell id="28" value="" style="dashed=0;html=1;shape=mxgraph.gmdl.preferences;strokeColor=none;fillColor=#084560;movable=0;resizable=0;rotatable=0;deletable=0;editable=0;locked=1;connectable=0;" vertex="1" parent="27">
                    <mxGeometry width="24" height="16" relative="1" as="geometry">
                        <mxPoint x="16" y="20" as="offset"/>
                    </mxGeometry>
                </mxCell>
                <mxCell id="29" value="" style="dashed=0;html=1;shape=mxgraph.gmdl.search;strokeColor=#084560;fillColor=none;strokeWidth=2;movable=0;resizable=0;rotatable=0;deletable=0;editable=0;locked=1;connectable=0;" vertex="1" parent="27">
                    <mxGeometry x="1" width="16" height="16" relative="1" as="geometry">
                        <mxPoint x="-73" y="20" as="offset"/>
                    </mxGeometry>
                </mxCell>
                <mxCell id="30" value="" style="dashed=0;html=1;shape=mxgraph.gmdl.rects;strokeColor=none;fillColor=#084560;movable=0;resizable=0;rotatable=0;deletable=0;editable=0;locked=1;connectable=0;" vertex="1" parent="27">
                    <mxGeometry x="1" width="18" height="16" relative="1" as="geometry">
                        <mxPoint x="-34" y="20" as="offset"/>
                    </mxGeometry>
                </mxCell>
                <mxCell id="31" value="Open in" style="shape=rect;strokeColor=none;fillColor=none;align=left;fontColor=#808080;fontSize=14;html=1;movable=0;resizable=0;rotatable=0;deletable=0;editable=0;locked=1;connectable=0;" vertex="1" parent="24">
                    <mxGeometry width="200" height="20" relative="1" as="geometry">
                        <mxPoint x="10" y="99" as="offset"/>
                    </mxGeometry>
                </mxCell>
                <mxCell id="32" value="Keep" style="shape=mxgraph.gmdl.keep;strokeColor=none;fillColor=#F4B70B;align=left;labelPosition=right;verticalLabelPosition=middle;verticalAlign=middle;spacingLeft=20;fontSize=14;html=1;movable=0;resizable=0;rotatable=0;deletable=0;editable=0;locked=1;connectable=0;" vertex="1" parent="24">
                    <mxGeometry width="20" height="20" relative="1" as="geometry">
                        <mxPoint x="10" y="144" as="offset"/>
                    </mxGeometry>
                </mxCell>
                <mxCell id="33" value="Inbox" style="shape=mxgraph.gmdl.inbox;strokeColor=none;fillColor=#F4B70B;align=left;labelPosition=right;verticalLabelPosition=middle;verticalAlign=middle;spacingLeft=20;fontSize=14;html=1;movable=0;resizable=0;rotatable=0;deletable=0;editable=0;locked=1;connectable=0;" vertex="1" parent="24">
                    <mxGeometry width="22" height="20" relative="1" as="geometry">
                        <mxPoint x="10" y="194" as="offset"/>
                    </mxGeometry>
                </mxCell>
                <mxCell id="34" value="Hangouts" style="shape=mxgraph.gmdl.hangout;strokeColor=none;fillColor=#0F9755;align=left;labelPosition=right;verticalLabelPosition=middle;verticalAlign=middle;spacingLeft=20;fontSize=14;html=1;movable=0;resizable=0;rotatable=0;deletable=0;editable=0;locked=1;connectable=0;" vertex="1" parent="24">
                    <mxGeometry width="20" height="22" relative="1" as="geometry">
                        <mxPoint x="10" y="244" as="offset"/>
                    </mxGeometry>
                </mxCell>
                <mxCell id="35" value="Messenger" style="shape=mxgraph.gmdl.messenger;strokeColor=none;fillColor=#F4B70B;align=left;labelPosition=right;verticalLabelPosition=middle;verticalAlign=middle;spacingLeft=20;fontSize=14;html=1;movable=0;resizable=0;rotatable=0;deletable=0;editable=0;locked=1;connectable=0;" vertex="1" parent="24">
                    <mxGeometry width="22" height="20" relative="1" as="geometry">
                        <mxPoint x="10" y="294" as="offset"/>
                    </mxGeometry>
                </mxCell>
                <mxCell id="36" value="Google+" style="shape=mxgraph.gmdl.google_plus;strokeColor=none;fillColor=#D14235;align=left;labelPosition=right;verticalLabelPosition=middle;verticalAlign=middle;spacingLeft=20;fontSize=14;html=1;movable=0;resizable=0;rotatable=0;deletable=0;editable=0;locked=1;connectable=0;" vertex="1" parent="24">
                    <mxGeometry width="20" height="20" relative="1" as="geometry">
                        <mxPoint x="10" y="344" as="offset"/>
                    </mxGeometry>
                </mxCell>
                <mxCell id="37" value="Sheets" style="shape=mxgraph.gmdl.sheets;strokeColor=none;fillColor=#21A464;align=left;labelPosition=right;verticalLabelPosition=middle;verticalAlign=middle;spacingLeft=20;fontSize=14;html=1;movable=0;resizable=0;rotatable=0;deletable=0;editable=0;locked=1;connectable=0;" vertex="1" parent="24">
                    <mxGeometry width="16" height="20" relative="1" as="geometry">
                        <mxPoint x="12" y="394" as="offset"/>
                    </mxGeometry>
                </mxCell>
                <mxCell id="38" value="Docs" style="shape=mxgraph.gmdl.docs;strokeColor=none;fillColor=#4F8EF5;align=left;labelPosition=right;verticalLabelPosition=middle;verticalAlign=middle;spacingLeft=20;fontSize=14;html=1;movable=0;resizable=0;rotatable=0;deletable=0;editable=0;locked=1;connectable=0;" vertex="1" parent="24">
                    <mxGeometry width="16" height="20" relative="1" as="geometry">
                        <mxPoint x="12" y="444" as="offset"/>
                    </mxGeometry>
                </mxCell>
                <mxCell id="39" value="Slides" style="shape=mxgraph.gmdl.slides;strokeColor=none;fillColor=#F5B910;align=left;labelPosition=right;verticalLabelPosition=middle;verticalAlign=middle;spacingLeft=20;fontSize=14;html=1;movable=0;resizable=0;rotatable=0;deletable=0;editable=0;locked=1;connectable=0;" vertex="1" parent="24">
                    <mxGeometry width="16" height="20" relative="1" as="geometry">
                        <mxPoint x="12" y="494" as="offset"/>
                    </mxGeometry>
                </mxCell>
                <mxCell id="40" value="Photos" style="shape=mxgraph.gmdl.photos;align=left;labelPosition=right;verticalLabelPosition=middle;verticalAlign=middle;spacingLeft=20;fontSize=14;html=1;movable=0;resizable=0;rotatable=0;deletable=0;editable=0;locked=1;connectable=0;" vertex="1" parent="24">
                    <mxGeometry width="20" height="20" relative="1" as="geometry">
                        <mxPoint x="10" y="544" as="offset"/>
                    </mxGeometry>
                </mxCell>
                <mxCell id="41" value="" style="dashed=0;align=center;fontSize=12;shape=rect;strokeColor=none;fillColor=#000000;resizeWidth=1;movable=0;resizable=0;rotatable=0;deletable=0;editable=0;locked=1;connectable=0;" vertex="1" parent="24">
                    <mxGeometry y="1" width="358" height="48" relative="1" as="geometry">
                        <mxPoint y="-48" as="offset"/>
                    </mxGeometry>
                </mxCell>
                <mxCell id="42" value="" style="dashed=0;html=1;shape=mxgraph.gmdl.back;strokeColor=#ffffff;fillColor=#000000;strokeWidth=2;movable=0;resizable=0;rotatable=0;deletable=0;editable=0;locked=1;connectable=0;" vertex="1" parent="41">
                    <mxGeometry x="0.25" y="0.5" width="14" height="14" relative="1" as="geometry">
                        <mxPoint x="-7" y="-7" as="offset"/>
                    </mxGeometry>
                </mxCell>
                <mxCell id="43" value="" style="shape=ellipse;strokeColor=#ffffff;fillColor=#000000;strokeWidth=2;movable=0;resizable=0;rotatable=0;deletable=0;editable=0;locked=1;connectable=0;" vertex="1" parent="41">
                    <mxGeometry x="0.5" y="0.5" width="14" height="14" relative="1" as="geometry">
                        <mxPoint x="-7" y="-7" as="offset"/>
                    </mxGeometry>
                </mxCell>
                <mxCell id="44" value="" style="shape=rect;strokeColor=#ffffff;fillColor=#000000;strokeWidth=2;movable=0;resizable=0;rotatable=0;deletable=0;editable=0;locked=1;connectable=0;" vertex="1" parent="41">
                    <mxGeometry x="0.75" y="0.5" width="14" height="14" relative="1" as="geometry">
                        <mxPoint x="-7" y="-7" as="offset"/>
                    </mxGeometry>
                </mxCell>
                <mxCell id="45" value="" style="shape=ellipse;fillColor=#99CCFF;strokeColor=none;shadow=1;aspect=fixed;sketch=0;html=1;labelPosition=center;verticalLabelPosition=bottom;align=center;verticalAlign=top;movable=0;resizable=0;rotatable=0;deletable=0;editable=0;locked=1;connectable=0;" vertex="1" parent="1">
                    <mxGeometry x="40" y="320" width="56" height="56" as="geometry"/>
                </mxCell>
                <mxCell id="46" value="" style="dashed=0;html=1;shape=mxgraph.gmdl.plus;strokeColor=#ffffff;strokeWidth=2;shadow=0;sketch=0;movable=0;resizable=0;rotatable=0;deletable=0;editable=0;locked=1;connectable=0;" vertex="1" parent="45">
                    <mxGeometry x="20" y="20" width="16" height="16" as="geometry"/>
                </mxCell>
                <mxCell id="51" value="" style="group;movable=0;resizable=0;rotatable=0;deletable=0;editable=0;locked=1;connectable=0;" vertex="1" connectable="0" parent="1">
                    <mxGeometry x="710" y="200" width="72" height="32" as="geometry"/>
                </mxCell>
                <mxCell id="47" value="" style="shape=ellipse;dashed=0;strokeColor=default;shadow=0;fontSize=13;align=center;verticalAlign=top;labelPosition=center;verticalLabelPosition=bottom;html=1;aspect=fixed;movable=0;resizable=0;rotatable=0;deletable=0;editable=0;locked=1;connectable=0;" vertex="1" parent="51">
                    <mxGeometry width="32" height="32" as="geometry"/>
                </mxCell>
                <mxCell id="48" value="" style="dashed=0;html=1;shape=mxgraph.gmdl.edit;strokeColor=none;fillColor=#737373;shadow=0;sketch=0;html=1;labelPosition=center;verticalLabelPosition=bottom;align=center;verticalAlign=top;movable=0;resizable=0;rotatable=0;deletable=0;editable=0;locked=1;connectable=0;" vertex="1" parent="47">
                    <mxGeometry x="10.285714285714285" y="10.285714285714285" width="11.428571428571427" height="11.428571428571427" as="geometry"/>
                </mxCell>
                <mxCell id="49" value="" style="shape=ellipse;dashed=0;strokeColor=default;shadow=0;fontSize=13;align=center;verticalAlign=top;labelPosition=center;verticalLabelPosition=bottom;html=1;aspect=fixed;movable=0;resizable=0;rotatable=0;deletable=0;editable=0;locked=1;connectable=0;" vertex="1" parent="51">
                    <mxGeometry x="40" width="32" height="32" as="geometry"/>
                </mxCell>
                <mxCell id="50" value="" style="dashed=0;html=1;shape=mxgraph.gmdl.x;strokeColor=#737373;strokeWidth=2;shadow=0;sketch=0;html=1;labelPosition=center;verticalLabelPosition=bottom;align=center;verticalAlign=top;movable=0;resizable=0;rotatable=0;deletable=0;editable=0;locked=1;connectable=0;" vertex="1" parent="49">
                    <mxGeometry x="11.428571428571429" y="11.428571428571429" width="9.142857142857144" height="9.142857142857144" as="geometry"/>
                </mxCell>
                <mxCell id="52" value="" style="group;movable=0;resizable=0;rotatable=0;deletable=0;editable=0;locked=1;connectable=0;" vertex="1" connectable="0" parent="1">
                    <mxGeometry x="711" y="241" width="72" height="32" as="geometry"/>
                </mxCell>
                <mxCell id="53" value="" style="shape=ellipse;dashed=0;strokeColor=default;shadow=0;fontSize=13;align=center;verticalAlign=top;labelPosition=center;verticalLabelPosition=bottom;html=1;aspect=fixed;movable=0;resizable=0;rotatable=0;deletable=0;editable=0;locked=1;connectable=0;" vertex="1" parent="52">
                    <mxGeometry width="32" height="32" as="geometry"/>
                </mxCell>
                <mxCell id="54" value="" style="dashed=0;html=1;shape=mxgraph.gmdl.edit;strokeColor=none;fillColor=#737373;shadow=0;sketch=0;html=1;labelPosition=center;verticalLabelPosition=bottom;align=center;verticalAlign=top;movable=0;resizable=0;rotatable=0;deletable=0;editable=0;locked=1;connectable=0;" vertex="1" parent="53">
                    <mxGeometry x="10.285714285714285" y="10.285714285714285" width="11.428571428571427" height="11.428571428571427" as="geometry"/>
                </mxCell>
                <mxCell id="55" value="" style="shape=ellipse;dashed=0;strokeColor=default;shadow=0;fontSize=13;align=center;verticalAlign=top;labelPosition=center;verticalLabelPosition=bottom;html=1;aspect=fixed;movable=0;resizable=0;rotatable=0;deletable=0;editable=0;locked=1;connectable=0;" vertex="1" parent="52">
                    <mxGeometry x="40" width="32" height="32" as="geometry"/>
                </mxCell>
                <mxCell id="56" value="" style="dashed=0;html=1;shape=mxgraph.gmdl.x;strokeColor=#737373;strokeWidth=2;shadow=0;sketch=0;html=1;labelPosition=center;verticalLabelPosition=bottom;align=center;verticalAlign=top;movable=0;resizable=0;rotatable=0;deletable=0;editable=0;locked=1;connectable=0;" vertex="1" parent="55">
                    <mxGeometry x="11.428571428571429" y="11.428571428571429" width="9.142857142857144" height="9.142857142857144" as="geometry"/>
                </mxCell>
                <mxCell id="57" value="" style="group;movable=0;resizable=0;rotatable=0;deletable=0;editable=0;locked=1;connectable=0;" vertex="1" connectable="0" parent="1">
                    <mxGeometry x="710" y="281" width="72" height="32" as="geometry"/>
                </mxCell>
                <mxCell id="58" value="" style="shape=ellipse;dashed=0;strokeColor=default;shadow=0;fontSize=13;align=center;verticalAlign=top;labelPosition=center;verticalLabelPosition=bottom;html=1;aspect=fixed;movable=0;resizable=0;rotatable=0;deletable=0;editable=0;locked=1;connectable=0;" vertex="1" parent="57">
                    <mxGeometry width="32" height="32" as="geometry"/>
                </mxCell>
                <mxCell id="59" value="" style="dashed=0;html=1;shape=mxgraph.gmdl.edit;strokeColor=none;fillColor=#737373;shadow=0;sketch=0;html=1;labelPosition=center;verticalLabelPosition=bottom;align=center;verticalAlign=top;movable=0;resizable=0;rotatable=0;deletable=0;editable=0;locked=1;connectable=0;" vertex="1" parent="58">
                    <mxGeometry x="10.285714285714285" y="10.285714285714285" width="11.428571428571427" height="11.428571428571427" as="geometry"/>
                </mxCell>
                <mxCell id="60" value="" style="shape=ellipse;dashed=0;strokeColor=default;shadow=0;fontSize=13;align=center;verticalAlign=top;labelPosition=center;verticalLabelPosition=bottom;html=1;aspect=fixed;movable=0;resizable=0;rotatable=0;deletable=0;editable=0;locked=1;connectable=0;" vertex="1" parent="57">
                    <mxGeometry x="40" width="32" height="32" as="geometry"/>
                </mxCell>
                <mxCell id="61" value="" style="dashed=0;html=1;shape=mxgraph.gmdl.x;strokeColor=#737373;strokeWidth=2;shadow=0;sketch=0;html=1;labelPosition=center;verticalLabelPosition=bottom;align=center;verticalAlign=top;movable=0;resizable=0;rotatable=0;deletable=0;editable=0;locked=1;connectable=0;" vertex="1" parent="60">
                    <mxGeometry x="11.428571428571429" y="11.428571428571429" width="9.142857142857144" height="9.142857142857144" as="geometry"/>
                </mxCell>
                <mxCell id="101" value="" style="group;movable=0;resizable=0;rotatable=0;deletable=0;editable=0;locked=1;connectable=0;" vertex="1" connectable="0" parent="1">
                    <mxGeometry x="40" y="420" width="350" height="257" as="geometry"/>
                </mxCell>
                <mxCell id="65" value="" style="group;movable=0;resizable=0;rotatable=0;deletable=0;editable=0;locked=1;connectable=0;" vertex="1" connectable="0" parent="101">
                    <mxGeometry y="91" width="350" height="30" as="geometry"/>
                </mxCell>
                <mxCell id="14" value="" style="group;movable=0;resizable=0;rotatable=0;deletable=0;editable=0;locked=1;connectable=0;" vertex="1" connectable="0" parent="65">
                    <mxGeometry width="200" height="30" as="geometry"/>
                </mxCell>
                <mxCell id="15" value="" style="rounded=1;whiteSpace=wrap;html=1;movable=0;resizable=0;rotatable=0;deletable=0;editable=0;locked=1;connectable=0;" vertex="1" parent="14">
                    <mxGeometry width="30" height="30" as="geometry"/>
                </mxCell>
                <mxCell id="16" value="Description" style="text;html=1;align=center;verticalAlign=middle;whiteSpace=wrap;rounded=0;movable=0;resizable=0;rotatable=0;deletable=0;editable=0;locked=1;connectable=0;" vertex="1" parent="14">
                    <mxGeometry x="40" width="90" height="30" as="geometry"/>
                </mxCell>
                <mxCell id="17" value="date" style="text;html=1;align=center;verticalAlign=middle;whiteSpace=wrap;rounded=0;movable=0;resizable=0;rotatable=0;deletable=0;editable=0;locked=1;connectable=0;" vertex="1" parent="14">
                    <mxGeometry x="150" width="50" height="30" as="geometry"/>
                </mxCell>
                <mxCell id="63" value="" style="rounded=1;whiteSpace=wrap;html=1;strokeColor=none;fillColor=#00CC00;movable=0;resizable=0;rotatable=0;deletable=0;editable=0;locked=1;connectable=0;" vertex="1" parent="65">
                    <mxGeometry x="290" width="60" height="30" as="geometry"/>
                </mxCell>
                <mxCell id="64" value="" style="rounded=1;whiteSpace=wrap;html=1;fillColor=#FF3333;strokeColor=none;movable=0;resizable=0;rotatable=0;deletable=0;editable=0;locked=1;connectable=0;" vertex="1" parent="65">
                    <mxGeometry x="220" width="60" height="30" as="geometry"/>
                </mxCell>
                <mxCell id="66" value="" style="group;movable=0;resizable=0;rotatable=0;deletable=0;editable=0;locked=1;connectable=0;" vertex="1" connectable="0" parent="101">
                    <mxGeometry y="136" width="350" height="30" as="geometry"/>
                </mxCell>
                <mxCell id="67" value="" style="group;movable=0;resizable=0;rotatable=0;deletable=0;editable=0;locked=1;connectable=0;" vertex="1" connectable="0" parent="66">
                    <mxGeometry width="200" height="30" as="geometry"/>
                </mxCell>
                <mxCell id="68" value="" style="rounded=1;whiteSpace=wrap;html=1;movable=0;resizable=0;rotatable=0;deletable=0;editable=0;locked=1;connectable=0;" vertex="1" parent="67">
                    <mxGeometry width="30" height="30" as="geometry"/>
                </mxCell>
                <mxCell id="69" value="Description" style="text;html=1;align=center;verticalAlign=middle;whiteSpace=wrap;rounded=0;movable=0;resizable=0;rotatable=0;deletable=0;editable=0;locked=1;connectable=0;" vertex="1" parent="67">
                    <mxGeometry x="40" width="90" height="30" as="geometry"/>
                </mxCell>
                <mxCell id="70" value="date" style="text;html=1;align=center;verticalAlign=middle;whiteSpace=wrap;rounded=0;movable=0;resizable=0;rotatable=0;deletable=0;editable=0;locked=1;connectable=0;" vertex="1" parent="67">
                    <mxGeometry x="150" width="50" height="30" as="geometry"/>
                </mxCell>
                <mxCell id="71" value="" style="rounded=1;whiteSpace=wrap;html=1;strokeColor=none;fillColor=#00CC00;movable=0;resizable=0;rotatable=0;deletable=0;editable=0;locked=1;connectable=0;" vertex="1" parent="66">
                    <mxGeometry x="290" width="60" height="30" as="geometry"/>
                </mxCell>
                <mxCell id="72" value="" style="rounded=1;whiteSpace=wrap;html=1;fillColor=#FF3333;strokeColor=none;movable=0;resizable=0;rotatable=0;deletable=0;editable=0;locked=1;connectable=0;" vertex="1" parent="66">
                    <mxGeometry x="220" width="60" height="30" as="geometry"/>
                </mxCell>
                <mxCell id="73" value="" style="group;movable=0;resizable=0;rotatable=0;deletable=0;editable=0;locked=1;connectable=0;" vertex="1" connectable="0" parent="101">
                    <mxGeometry y="182" width="350" height="30" as="geometry"/>
                </mxCell>
                <mxCell id="74" value="" style="group;movable=0;resizable=0;rotatable=0;deletable=0;editable=0;locked=1;connectable=0;" vertex="1" connectable="0" parent="73">
                    <mxGeometry width="200" height="30" as="geometry"/>
                </mxCell>
                <mxCell id="75" value="" style="rounded=1;whiteSpace=wrap;html=1;movable=0;resizable=0;rotatable=0;deletable=0;editable=0;locked=1;connectable=0;" vertex="1" parent="74">
                    <mxGeometry width="30" height="30" as="geometry"/>
                </mxCell>
                <mxCell id="76" value="Description" style="text;html=1;align=center;verticalAlign=middle;whiteSpace=wrap;rounded=0;movable=0;resizable=0;rotatable=0;deletable=0;editable=0;locked=1;connectable=0;" vertex="1" parent="74">
                    <mxGeometry x="40" width="90" height="30" as="geometry"/>
                </mxCell>
                <mxCell id="77" value="date" style="text;html=1;align=center;verticalAlign=middle;whiteSpace=wrap;rounded=0;movable=0;resizable=0;rotatable=0;deletable=0;editable=0;locked=1;connectable=0;" vertex="1" parent="74">
                    <mxGeometry x="150" width="50" height="30" as="geometry"/>
                </mxCell>
                <mxCell id="78" value="" style="rounded=1;whiteSpace=wrap;html=1;strokeColor=none;fillColor=#00CC00;movable=0;resizable=0;rotatable=0;deletable=0;editable=0;locked=1;connectable=0;" vertex="1" parent="73">
                    <mxGeometry x="290" width="60" height="30" as="geometry"/>
                </mxCell>
                <mxCell id="79" value="" style="rounded=1;whiteSpace=wrap;html=1;fillColor=#FF3333;strokeColor=none;movable=0;resizable=0;rotatable=0;deletable=0;editable=0;locked=1;connectable=0;" vertex="1" parent="73">
                    <mxGeometry x="220" width="60" height="30" as="geometry"/>
                </mxCell>
                <mxCell id="80" value="" style="group;movable=0;resizable=0;rotatable=0;deletable=0;editable=0;locked=1;connectable=0;" vertex="1" connectable="0" parent="101">
                    <mxGeometry y="227" width="350" height="30" as="geometry"/>
                </mxCell>
                <mxCell id="81" value="" style="group;movable=0;resizable=0;rotatable=0;deletable=0;editable=0;locked=1;connectable=0;" vertex="1" connectable="0" parent="80">
                    <mxGeometry width="200" height="30" as="geometry"/>
                </mxCell>
                <mxCell id="82" value="" style="rounded=1;whiteSpace=wrap;html=1;movable=0;resizable=0;rotatable=0;deletable=0;editable=0;locked=1;connectable=0;" vertex="1" parent="81">
                    <mxGeometry width="30" height="30" as="geometry"/>
                </mxCell>
                <mxCell id="83" value="Description" style="text;html=1;align=center;verticalAlign=middle;whiteSpace=wrap;rounded=0;movable=0;resizable=0;rotatable=0;deletable=0;editable=0;locked=1;connectable=0;" vertex="1" parent="81">
                    <mxGeometry x="40" width="90" height="30" as="geometry"/>
                </mxCell>
                <mxCell id="84" value="date" style="text;html=1;align=center;verticalAlign=middle;whiteSpace=wrap;rounded=0;movable=0;resizable=0;rotatable=0;deletable=0;editable=0;locked=1;connectable=0;" vertex="1" parent="81">
                    <mxGeometry x="150" width="50" height="30" as="geometry"/>
                </mxCell>
                <mxCell id="85" value="" style="rounded=1;whiteSpace=wrap;html=1;strokeColor=none;fillColor=#00CC00;movable=0;resizable=0;rotatable=0;deletable=0;editable=0;locked=1;connectable=0;" vertex="1" parent="80">
                    <mxGeometry x="290" width="60" height="30" as="geometry"/>
                </mxCell>
                <mxCell id="86" value="" style="rounded=1;whiteSpace=wrap;html=1;fillColor=#FF3333;strokeColor=none;movable=0;resizable=0;rotatable=0;deletable=0;editable=0;locked=1;connectable=0;" vertex="1" parent="80">
                    <mxGeometry x="220" width="60" height="30" as="geometry"/>
                </mxCell>
                <mxCell id="87" value="" style="group;movable=0;resizable=0;rotatable=0;deletable=0;editable=0;locked=1;connectable=0;" vertex="1" connectable="0" parent="101">
                    <mxGeometry y="45" width="350" height="30" as="geometry"/>
                </mxCell>
                <mxCell id="88" value="" style="group;movable=0;resizable=0;rotatable=0;deletable=0;editable=0;locked=1;connectable=0;" vertex="1" connectable="0" parent="87">
                    <mxGeometry width="200" height="30" as="geometry"/>
                </mxCell>
                <mxCell id="89" value="" style="rounded=1;whiteSpace=wrap;html=1;movable=0;resizable=0;rotatable=0;deletable=0;editable=0;locked=1;connectable=0;" vertex="1" parent="88">
                    <mxGeometry width="30" height="30" as="geometry"/>
                </mxCell>
                <mxCell id="90" value="Description" style="text;html=1;align=center;verticalAlign=middle;whiteSpace=wrap;rounded=0;movable=0;resizable=0;rotatable=0;deletable=0;editable=0;locked=1;connectable=0;" vertex="1" parent="88">
                    <mxGeometry x="40" width="90" height="30" as="geometry"/>
                </mxCell>
                <mxCell id="91" value="date" style="text;html=1;align=center;verticalAlign=middle;whiteSpace=wrap;rounded=0;movable=0;resizable=0;rotatable=0;deletable=0;editable=0;locked=1;connectable=0;" vertex="1" parent="88">
                    <mxGeometry x="150" width="50" height="30" as="geometry"/>
                </mxCell>
                <mxCell id="92" value="" style="rounded=1;whiteSpace=wrap;html=1;strokeColor=none;fillColor=#00CC00;movable=0;resizable=0;rotatable=0;deletable=0;editable=0;locked=1;connectable=0;" vertex="1" parent="87">
                    <mxGeometry x="290" width="60" height="30" as="geometry"/>
                </mxCell>
                <mxCell id="93" value="" style="rounded=1;whiteSpace=wrap;html=1;fillColor=#FF3333;strokeColor=none;movable=0;resizable=0;rotatable=0;deletable=0;editable=0;locked=1;connectable=0;" vertex="1" parent="87">
                    <mxGeometry x="220" width="60" height="30" as="geometry"/>
                </mxCell>
                <mxCell id="94" value="" style="group;movable=0;resizable=0;rotatable=0;deletable=0;editable=0;locked=1;connectable=0;" vertex="1" connectable="0" parent="101">
                    <mxGeometry width="350" height="30" as="geometry"/>
                </mxCell>
                <mxCell id="95" value="" style="group;movable=0;resizable=0;rotatable=0;deletable=0;editable=0;locked=1;connectable=0;" vertex="1" connectable="0" parent="94">
                    <mxGeometry width="200" height="30" as="geometry"/>
                </mxCell>
                <mxCell id="96" value="" style="rounded=1;whiteSpace=wrap;html=1;movable=0;resizable=0;rotatable=0;deletable=0;editable=0;locked=1;connectable=0;" vertex="1" parent="95">
                    <mxGeometry width="30" height="30" as="geometry"/>
                </mxCell>
                <mxCell id="97" value="Description" style="text;html=1;align=center;verticalAlign=middle;whiteSpace=wrap;rounded=0;movable=0;resizable=0;rotatable=0;deletable=0;editable=0;locked=1;connectable=0;" vertex="1" parent="95">
                    <mxGeometry x="40" width="90" height="30" as="geometry"/>
                </mxCell>
                <mxCell id="98" value="date" style="text;html=1;align=center;verticalAlign=middle;whiteSpace=wrap;rounded=0;movable=0;resizable=0;rotatable=0;deletable=0;editable=0;locked=1;connectable=0;" vertex="1" parent="95">
                    <mxGeometry x="150" width="50" height="30" as="geometry"/>
                </mxCell>
                <mxCell id="99" value="" style="rounded=1;whiteSpace=wrap;html=1;strokeColor=none;fillColor=#00CC00;movable=0;resizable=0;rotatable=0;deletable=0;editable=0;locked=1;connectable=0;" vertex="1" parent="94">
                    <mxGeometry x="290" width="60" height="30" as="geometry"/>
                </mxCell>
                <mxCell id="100" value="" style="rounded=1;whiteSpace=wrap;html=1;fillColor=#FF3333;strokeColor=none;movable=0;resizable=0;rotatable=0;deletable=0;editable=0;locked=1;connectable=0;" vertex="1" parent="94">
                    <mxGeometry x="220" width="60" height="30" as="geometry"/>
                </mxCell>
                <mxCell id="102" value="task :&amp;nbsp;&lt;div&gt;&lt;ul&gt;&lt;li&gt;description -&amp;gt; task name&lt;/li&gt;&lt;li&gt;date -&amp;gt; when&lt;/li&gt;&lt;li&gt;edite() -&amp;gt; update text&lt;/li&gt;&lt;li&gt;isCheck()&lt;/li&gt;&lt;/ul&gt;&lt;div&gt;task manager :&amp;nbsp;&lt;/div&gt;&lt;/div&gt;&lt;div&gt;&lt;ul&gt;&lt;li&gt;lentgh&lt;/li&gt;&lt;li&gt;add()&lt;/li&gt;&lt;li&gt;remove(idTask)&lt;span style=&quot;white-space: pre;&quot;&gt;&#x9;&lt;/span&gt;&lt;/li&gt;&lt;/ul&gt;&lt;/div&gt;" style="html=1;shadow=0;dashed=0;shape=mxgraph.bootstrap.rrect;rSize=5;strokeColor=#999999;strokeWidth=1;fillColor=#FFFFFF;fontColor=#6C767D;whiteSpace=wrap;align=left;verticalAlign=middle;spacingLeft=10;fontSize=14;spacing=10;movable=0;resizable=0;rotatable=0;deletable=0;editable=0;locked=1;connectable=0;" vertex="1" parent="1">
                    <mxGeometry x="560" y="350" width="420" height="280" as="geometry"/>
                </mxCell>
            </root>
        </mxGraphModel>
    </diagram>
</mxfile>